<?xml version="1.0" encoding="UTF-8"?>
<svg id="Layer_1" data-name="Layer 1" xmlns="http://www.w3.org/2000/svg" viewBox="0 0 48 41.01">
  <defs>
    <style>
      .cls-1 {
        fill: #dc8400;
      }
    </style>
  </defs>
  <path class="cls-1" d="M0,22.71c.09-.08.07-.26.1-.37.34-1.32,1.81-1.64,2.99-1.35,1.95.47,3.47,2.45,4.36,4.13.11.21.21.49.32.68.02.03.03.06.06.07,0-.17.03-.38.11-.54.5-1.04,3.07-1.62,4.13-1.86,2.85-.63,5.74-1.06,8.63-1.48-.66-.82-1.15-1.49-.48-2.5,1.33-2.02,6.5-3.16,7.15,0,.15.71-.25,1.33-.47,1.98,1.05-.1,2.11-.21,3.17-.29,2.5-.18,5.49-.42,7.97-.11,1.01.13,2.76.58,2.63,1.9-.11,1.06-2.18,1.72-3.04,1.98-2.19.67-4.6,1.08-6.87,1.39-5.47.75-11.01,1.06-16.51,1.3l-1.82.03c.08.09.26.12.38.15,1.13.29,2.42.32,3.59.37,3.75.17,7.58.08,11.33-.11,1.47-.08,2.84-.2,4.3-.41,2.73-.38,5.43-.91,8.11-1.52.79-1.74,1.88-3.58,3.55-4.6,1.38-.84,3.41-1.13,4.23.59l.1.37v.52c-.04.11-.05.22-.08.34-.43,1.54-2.42,2.59-3.81,3.13-.94.36-1.91.63-2.88.91-.88,2.51-1.4,5.14-2.42,7.61-.4.97-.81,1.82-1.59,2.54-2.85,2.66-8.93,3.38-12.69,3.43-.05,0-.13-.02-.16.03h-1.03s-.11-.03-.16-.03c-3.59-.04-9.02-.69-11.9-2.98-.97-.77-1.46-1.64-1.94-2.76-1.12-2.59-1.63-5.37-2.58-8.01-1.61-.28-3.21-.74-4.61-1.6-1.04-.64-1.88-1.41-2.09-2.67,0-.05.01-.11-.06-.13v-.11ZM5.96,25.55c-.26-.54-.62-1.07-1-1.53-.63-.75-1.83-1.77-2.88-1.65s-.26,1.15.17,1.52c.98.86,2.47,1.33,3.71,1.66ZM42.06,25.61c.95-.3,1.92-.6,2.8-1.08.5-.27,1.12-.69,1.44-1.17.6-.9-.22-1.1-.98-.92-1.05.26-2.02,1.25-2.63,2.1-.07.1-.68,1.02-.64,1.07Z"/>
  <path class="cls-1" d="M22.34,0c2.54.25,3.4,2.6,3.3,4.86-.03.7-.4,1.86-1.3,1.73-.62-.09-1.3-1.27-1.91-1.62-1.51-.86-2.42.23-2.38,1.72.07,2.78,1.67,2.95,3.74,3.98s2.58,2.71,2.46,4.86c-.04.62-.32,1.43-.74.42-.6-1.46-.47-2.86-2.49-2.96-1.03-.05-1.74,0-2.74-.39-2.73-1.09-3.26-4.84-2.71-7.38.47-2.2,2.09-5.05,4.6-5.22h.17Z"/>
  <path class="cls-1" d="M27.81,2.62c1.23-.18,2.15,1.23,2.52,2.22.61,1.65.6,3.72-1.01,4.77-.57.37-.84.31-1.46.4-1.08.17-.87,1.21-1.19,1.9-.26.56-.39-.36-.4-.57-.03-.67.13-1.47.53-2.02.58-.8,1.79-.9,2.26-1.92.28-.6.4-2.34-.65-2.17-.54.09-.76.63-1.08.98-.19.21-.36.38-.65.19-.61-.39-.39-2.18-.11-2.76.2-.41.78-.96,1.24-1.03Z"/>
</svg>